<?xml version="1.0" encoding="UTF-8"?>
<svg xmlns="http://www.w3.org/2000/svg" xmlns:xlink="http://www.w3.org/1999/xlink" viewBox="0 0 32 32">
  <defs>
    <style>
      .h, .i, .j {
        fill: none;
      }

      .k {
        fill: #fff;
      }

      .k, .l, .m, .n, .o, .p {
        mix-blend-mode: multiply;
      }

      .l {
        fill: #962929;
      }

      .m {
        fill: #b8b8b8;
      }

      .n {
        fill: #e9e9e9;
      }

      .i {
        stroke-width: .4px;
      }

      .i, .j {
        stroke: #000;
        stroke-linecap: round;
        stroke-linejoin: round;
      }

      .q {
        isolation: isolate;
      }

      .j {
        opacity: .5;
        stroke-width: .25px;
      }

      .r {
        clip-path: url(#c);
      }

      .o {
        fill: #c92d2d;
      }

      .p {
        fill: #af2828;
      }
    </style>
    <clipPath id="c">
      <rect class="h" width="32" height="32"/>
    </clipPath>
  </defs>
  <g class="q">
    <g id="b" data-name="Layer 2">
      <g>
        <polygon class="p" points="2.94 10.89 5.99 14.38 5.16 18.92 1.77 17.34 2.94 10.89"/>
        <polygon class="l" points="5.99 14.38 10.59 12.64 9.76 17.25 5.16 18.92 5.99 14.38"/>
        <polygon class="o" points="2.94 10.89 5.99 14.38 10.59 12.64 7.45 9.12 2.94 10.89"/>
        <g class="r">
          <polygon class="n" points="1.67 17.34 2.85 10.89 6.13 6.86 10.88 6.04 16.15 8.6 20.9 14.04 24.19 21.26 25.36 28.85 21.98 27.21 21.14 21.79 18.79 16.63 15.4 12.75 11.64 10.92 8.24 11.5 5.9 14.38 5.06 18.99 1.67 17.34"/>
          <polygon class="k" points="25.36 28.85 30.06 27.11 28.89 19.52 25.6 12.3 20.85 6.86 15.58 4.3 10.83 5.12 6.13 6.86 10.88 6.04 16.15 8.6 20.9 14.04 24.19 21.26 25.36 28.85"/>
          <polygon class="m" points="5.06 18.99 9.76 17.25 10.59 12.64 11.92 11.01 8.24 11.5 5.9 14.38 5.06 18.99"/>
        </g>
        <line class="j" x1="10.59" y1="12.64" x2="5.99" y2="14.38"/>
        <line class="j" x1="10.59" y1="12.64" x2="11.92" y2="11.01"/>
        <line class="j" x1="5.99" y1="14.38" x2="2.94" y2="10.89"/>
        <line class="j" x1="5.99" y1="14.38" x2="8.34" y2="11.5"/>
        <line class="j" x1="2.94" y1="10.89" x2="6.23" y2="6.86"/>
        <line class="j" x1="6.23" y1="6.86" x2="10.83" y2="5.12"/>
        <line class="j" x1="6.23" y1="6.86" x2="10.97" y2="6.04"/>
        <line class="j" x1="10.83" y1="5.12" x2="15.58" y2="4.3"/>
        <line class="j" x1="9.76" y1="17.25" x2="5.15" y2="18.99"/>
        <line class="j" x1="10.59" y1="12.64" x2="9.76" y2="17.25"/>
        <line class="j" x1="5.15" y1="18.99" x2="1.77" y2="17.34"/>
        <line class="j" x1="1.77" y1="17.34" x2="2.94" y2="10.89"/>
        <line class="j" x1="5.15" y1="18.99" x2="5.99" y2="14.38"/>
        <line class="j" x1="21.23" y1="21.79" x2="22.07" y2="27.21"/>
        <line class="j" x1="28.89" y1="19.52" x2="30.06" y2="27.11"/>
        <line class="j" x1="30.06" y1="27.11" x2="25.45" y2="28.85"/>
        <line class="j" x1="25.45" y1="28.85" x2="22.07" y2="27.21"/>
        <line class="j" x1="24.28" y1="21.26" x2="25.45" y2="28.85"/>
        <line class="j" x1="8.34" y1="11.5" x2="6.23" y2="6.86"/>
        <line class="j" x1="8.34" y1="11.5" x2="11.73" y2="10.92"/>
        <line class="j" x1="15.49" y1="12.75" x2="18.88" y2="16.63"/>
        <line class="j" x1="16.24" y1="8.6" x2="20.85" y2="6.86"/>
        <line class="j" x1="20.85" y1="6.86" x2="25.6" y2="12.3"/>
        <line class="j" x1="11.73" y1="10.92" x2="10.97" y2="6.04"/>
        <line class="j" x1="10.97" y1="6.04" x2="15.58" y2="4.3"/>
        <line class="j" x1="10.97" y1="6.04" x2="16.24" y2="8.6"/>
        <line class="j" x1="15.58" y1="4.3" x2="20.85" y2="6.86"/>
        <line class="j" x1="16.24" y1="8.6" x2="20.99" y2="14.04"/>
        <line class="j" x1="18.88" y1="16.63" x2="20.99" y2="14.04"/>
        <line class="j" x1="18.88" y1="16.63" x2="21.23" y2="21.79"/>
        <line class="j" x1="20.99" y1="14.04" x2="25.6" y2="12.3"/>
        <line class="j" x1="25.6" y1="12.3" x2="28.89" y2="19.52"/>
        <line class="j" x1="28.89" y1="19.52" x2="25.93" y2="20.64"/>
        <line class="j" x1="24.28" y1="21.26" x2="21.23" y2="21.79"/>
        <line class="j" x1="20.99" y1="14.04" x2="24.28" y2="21.26"/>
        <line class="j" x1="24.28" y1="21.26" x2="25.93" y2="20.64"/>
        <line class="j" x1="15.49" y1="12.75" x2="16.24" y2="8.6"/>
        <line class="j" x1="11.73" y1="10.92" x2="15.49" y2="12.75"/>
        <polygon class="i" points="7.51 9.12 10.59 12.64 9.76 17.25 5.16 18.92 1.77 17.34 2.94 10.89 7.51 9.12"/>
        <polygon class="l" points="28.89 19.52 24.28 21.26 25.45 28.85 30.06 27.11 28.89 19.52"/>
        <polygon class="o" points="21.23 21.79 24.28 21.26 28.89 19.52 25.64 20.08 21.23 21.79"/>
        <polygon class="p" points="21.23 21.79 22.07 27.21 25.45 28.85 24.28 21.26 21.23 21.79"/>
        <polygon class="i" points="21.23 21.79 22.07 27.21 25.45 28.85 30.06 27.11 28.89 19.52 25.64 20.08 21.23 21.79"/>
      </g>
    </g>
  </g>
</svg>