<?xml version="1.0" encoding="UTF-8"?>
<svg id="Layer_1" data-name="Layer 1" xmlns="http://www.w3.org/2000/svg" xmlns:xlink="http://www.w3.org/1999/xlink" viewBox="0 0 32 32">
  <defs>
    <style>
      .cls-1 {
        fill: url(#linear-gradient-5);
      }

      .cls-1, .cls-2, .cls-3, .cls-4, .cls-5, .cls-6 {
        fill-rule: evenodd;
      }

      .cls-2 {
        fill: url(#linear-gradient-2);
      }

      .cls-3 {
        fill: url(#linear-gradient-4);
      }

      .cls-4 {
        fill: url(#linear-gradient);
      }

      .cls-4, .cls-7 {
        stroke-miterlimit: 10;
      }

      .cls-4, .cls-6 {
        stroke: #000;
      }

      .cls-4, .cls-6, .cls-8, .cls-9 {
        stroke-linecap: round;
      }

      .cls-10 {
        fill: url(#linear-gradient-3);
      }

      .cls-11 {
        fill: #1d1d1b;
      }

      .cls-12, .cls-6 {
        fill: #fff;
      }

      .cls-7 {
        stroke: #fff;
      }

      .cls-7, .cls-8, .cls-9 {
        fill: none;
      }

      .cls-7, .cls-9 {
        stroke-width: 1.05px;
      }

      .cls-6, .cls-8, .cls-9 {
        stroke-linejoin: round;
      }

      .cls-13 {
        opacity: .75;
      }

      .cls-8, .cls-9 {
        stroke: #1d1d1b;
      }

      .cls-14 {
        fill: #0092d2;
      }
    </style>
    <linearGradient id="linear-gradient" x1="8.36" y1="31.39" x2="28.85" y2="10.89" gradientTransform="translate(0 34) scale(1 -1)" gradientUnits="userSpaceOnUse">
      <stop offset="0" stop-color="#fff"/>
      <stop offset="1" stop-color="#ccc"/>
    </linearGradient>
    <linearGradient id="linear-gradient-2" x1="10.47" y1="6.36" x2="10.47" y2="20.54" gradientTransform="translate(0 34) scale(1 -1)" gradientUnits="userSpaceOnUse">
      <stop offset="0" stop-color="#ada057"/>
      <stop offset="1" stop-color="#ddd088"/>
    </linearGradient>
    <linearGradient id="linear-gradient-3" x1="10.51" y1="14.51" x2="10.51" y2="20.66" gradientTransform="translate(0 34) scale(1 -1)" gradientUnits="userSpaceOnUse">
      <stop offset="0" stop-color="#c9cbcc"/>
      <stop offset="1" stop-color="#e6e8e8"/>
    </linearGradient>
    <linearGradient id="linear-gradient-4" x1="9.45" y1="3.99" x2="9.45" y2="9.19" gradientTransform="translate(0 34) scale(1 -1)" gradientUnits="userSpaceOnUse">
      <stop offset="0" stop-color="#868b8e"/>
      <stop offset="1" stop-color="#abadb0"/>
    </linearGradient>
    <linearGradient id="linear-gradient-5" x1="9.54" y1="8.87" x2="9.54" y2="3.6" gradientTransform="translate(0 34) scale(1 -1)" gradientUnits="userSpaceOnUse">
      <stop offset="0" stop-color="#fff"/>
      <stop offset="1" stop-color="#1d1d1b"/>
    </linearGradient>
  </defs>
  <g id="RV-logo">
    <polyline class="cls-4" points="30.48 6.99 30.48 21.49 9.48 21.49 9.48 1.49 24.98 1.49"/>
    <g>
      <path class="cls-14" d="M16.9,12.36c0,1.07-.3,1.9-.89,2.48-.59.58-1.42.87-2.49.87h-2.08v-6.42h2.22c1.03,0,1.83.26,2.39.79.56.53.84,1.29.84,2.29ZM15.1,12.42c0-.59-.12-1.03-.35-1.31-.23-.28-.59-.43-1.06-.43h-.51v3.6h.39c.53,0,.91-.15,1.16-.46s.37-.77.37-1.4Z"/>
      <path class="cls-14" d="M20.97,15.71h-3.81v-6.42h3.81v1.39h-2.08v1.01h1.92v1.39h-1.92v1.21h2.08v1.42Z"/>
      <path class="cls-14" d="M23.99,15.71l-1.31-4.63h-.04c.06.79.09,1.4.09,1.84v2.79h-1.54v-6.42h2.31l1.34,4.56h.04l1.31-4.56h2.32v6.42h-1.59v-2.82c0-.15,0-.31,0-.49,0-.18.02-.62.06-1.31h-.04l-1.3,4.62h-1.65Z"/>
    </g>
    <polygon class="cls-6" points="25.48 1.49 25.48 6.49 30.48 6.49 25.48 1.49"/>
    <g class="cls-13">
      <path class="cls-2" d="M2.39,12.51h16.21c.42,0,.88.5.88.92v15.99c0,.48-.5,1.05-.98,1.05h-1.39l-.95-.94-9.89.93-.99.02h-1.83l-1.98-1.99v-14.92c0-.46.45-1.05.91-1.05h.01Z"/>
      <rect class="cls-10" x="5.23" y="12.87" width="10.56" height="7.56"/>
      <polyline class="cls-7" points="5.75 11.99 5.75 19.87 15.26 19.87 15.26 11.99"/>
      <rect class="cls-12" x="2.06" y="13.04" width="17.02" height="1.06"/>
      <rect class="cls-12" x="17.9" y="15.15" width="1.05" height="1.06"/>
    </g>
    <path class="cls-8" d="M2.42,12.51h16.18c.42,0,.88.5.88.92v15.99c0,.48-.5,1.06-.98,1.05l-1.14-.02-1.05-1.06h-2.11l-4.22,1.06-4.68.02h-1.81l-1.97-1.99v-14.93c0-.46.44-1.05.91-1.05h-.01Z"/>
    <rect class="cls-12" x="2.06" y="15.15" width="1.05" height="1.06"/>
    <rect class="cls-11" x="2.06" y="14.1" width="1.05" height="1.05"/>
    <path class="cls-3" d="M6.28,24.66v5.28h3.17v-5.28h-3.17ZM4.7,24.66v5.81l9.5.02v-5.82c0-.25-.28-.53-.53-.53H5.23c-.25,0-.53.28-.53.53h0Z"/>
    <path class="cls-1" d="M5.23,24.66v5.74h8.62v-5.74H5.23ZM6.28,25.71v3.17h6.34v-3.17h-6.34Z"/>
    <path class="cls-9" d="M4.7,24.68v5.81h9.5v-5.94c0-.19-.2-.43-.4-.43H5.1c-.23,0-.4.33-.4.55h0Z"/>
    <rect class="cls-11" x="6.28" y="24.66" width="3.17" height="5.28"/>
    <rect class="cls-11" x="17.9" y="14.1" width="1.05" height="1.05"/>
    <polygon class="cls-5" points="4.17 21.49 4.17 13.04 5.23 13.04 5.23 20.43 15.79 20.43 15.79 13.04 16.84 13.04 16.84 21.49 4.17 21.49"/>
  </g>
</svg>