<?xml version="1.0" encoding="UTF-8"?>
<svg xmlns="http://www.w3.org/2000/svg" xmlns:xlink="http://www.w3.org/1999/xlink" viewBox="0 0 32 32">
  <defs>
    <style>
      .cls-1, .cls-2, .cls-3, .cls-4 {
        fill: none;
      }

      .cls-2 {
        stroke: #93278f;
      }

      .cls-2, .cls-3 {
        stroke-width: .5px;
      }

      .cls-2, .cls-3, .cls-4 {
        stroke-miterlimit: 10;
      }

      .cls-5 {
        isolation: isolate;
      }

      .cls-6 {
        fill: #93278f;
      }

      .cls-6, .cls-7 {
        mix-blend-mode: multiply;
        opacity: .5;
      }

      .cls-8 {
        clip-path: url(#clippath-1);
      }

      .cls-3 {
        stroke: blue;
      }

      .cls-4 {
        stroke: #231f20;
        stroke-width: .05px;
      }

      .cls-7 {
        fill: blue;
      }

      .cls-9 {
        clip-path: url(#clippath);
      }
    </style>
    <clipPath id="clippath">
      <rect class="cls-1" width="32" height="32"/>
    </clipPath>
    <clipPath id="clippath-1">
      <rect class="cls-1" x="38.4" width="32" height="32"/>
    </clipPath>
  </defs>
  <g class="cls-5">
    <g id="Layer_2" data-name="Layer 2">
      <g class="cls-9">
        <g>
          <image width="6135" height="3378" transform="translate(-9.41 2.89) scale(0)" xlink:href="../../../../../Documents/GitHub/obsidian/ETH_PhD/600_Dev/610_Libs/compas_masonry/icons/wip/tna/vaultview.png"/>
          <line class="cls-4" x1="2.64" y1="14.79" x2="3.83" y2="13.89"/>
          <line class="cls-4" x1="25.83" y1="9.85" x2="24.84" y2="10.23"/>
          <line class="cls-4" x1="25.83" y1="9.85" x2="27.24" y2="11.57"/>
          <line class="cls-4" x1="12.42" y1="22.07" x2="13.46" y2="21.86"/>
          <line class="cls-4" x1="11.69" y1="20.22" x2="12.42" y2="22.07"/>
          <line class="cls-4" x1="11.69" y1="20.22" x2="12.57" y2="19.6"/>
          <line class="cls-4" x1="27.44" y1="13.99" x2="25.46" y2="14.74"/>
          <line class="cls-4" x1="13.18" y1="10.56" x2="11.19" y2="11.3"/>
          <line class="cls-4" x1="11.19" y1="11.3" x2="9.21" y2="12.05"/>
          <line class="cls-4" x1="21.68" y1="8.16" x2="19.69" y2="8.91"/>
          <line class="cls-4" x1="5.76" y1="16.27" x2="3.78" y2="17.02"/>
          <line class="cls-4" x1="21.49" y1="16.24" x2="19.51" y2="16.99"/>
          <line class="cls-4" x1="25.26" y1="12.32" x2="26.45" y2="14.37"/>
          <line class="cls-4" x1="24.84" y1="10.23" x2="22.85" y2="10.97"/>
          <line class="cls-4" x1="23.47" y1="15.49" x2="21.49" y2="16.24"/>
          <line class="cls-4" x1="21.29" y1="13.82" x2="22.48" y2="15.86"/>
          <line class="cls-4" x1="8.26" y1="16.06" x2="9.54" y2="17.12"/>
          <line class="cls-4" x1="20.4" y1="19.24" x2="18.42" y2="19.99"/>
          <line class="cls-4" x1="5.51" y1="15.51" x2="5.83" y2="15.26"/>
          <line class="cls-4" x1="20.87" y1="11.72" x2="18.89" y2="12.47"/>
          <line class="cls-4" x1="19.13" y1="8.31" x2="17.14" y2="9.06"/>
          <line class="cls-4" x1="19.13" y1="8.31" x2="20.68" y2="8.53"/>
          <line class="cls-4" x1="28.33" y1="16.25" x2="26.35" y2="17"/>
          <line class="cls-4" x1="6.81" y1="12.77" x2="4.82" y2="13.52"/>
          <line class="cls-4" x1="6.81" y1="12.77" x2="8.22" y2="12.43"/>
          <line class="cls-4" x1="6.94" y1="15.42" x2="8.26" y2="16.06"/>
          <line class="cls-4" x1="6.94" y1="15.42" x2="6.8" y2="13.77"/>
          <line class="cls-4" x1="7.79" y1="13.4" x2="6.8" y2="13.77"/>
          <line class="cls-4" x1="7.79" y1="13.4" x2="9.4" y2="14.18"/>
          <line class="cls-4" x1="5.66" y1="15.24" x2="5.25" y2="13.55"/>
          <line class="cls-4" x1="4.5" y1="15.52" x2="5.66" y2="15.24"/>
          <line class="cls-4" x1="4.5" y1="15.52" x2="3.83" y2="13.89"/>
          <line class="cls-4" x1="6.24" y1="13.17" x2="5.25" y2="13.55"/>
          <line class="cls-4" x1="4.82" y1="13.52" x2="6.24" y2="13.17"/>
          <line class="cls-4" x1="11.19" y1="11.3" x2="12.75" y2="11.53"/>
          <line class="cls-4" x1="9.78" y1="12.65" x2="7.79" y2="13.4"/>
          <line class="cls-4" x1="9.78" y1="12.65" x2="11.38" y2="13.43"/>
          <line class="cls-4" x1="12.94" y1="14.72" x2="10.95" y2="15.46"/>
          <line class="cls-4" x1="12.94" y1="14.72" x2="14.35" y2="16.43"/>
          <line class="cls-4" x1="18.42" y1="19.99" x2="16.43" y2="20.74"/>
          <line class="cls-4" x1="17.53" y1="17.73" x2="15.54" y2="18.48"/>
          <line class="cls-4" x1="17.53" y1="17.73" x2="18.42" y2="19.99"/>
          <line class="cls-4" x1="23.28" y1="13.07" x2="21.29" y2="13.82"/>
          <line class="cls-4" x1="16.72" y1="9.03" x2="18.14" y2="8.69"/>
          <line class="cls-4" x1="23.28" y1="8.94" x2="22.29" y2="9.31"/>
          <line class="cls-4" x1="21.68" y1="8.16" x2="23.28" y2="8.94"/>
          <line class="cls-4" x1="26.35" y1="17" x2="24.37" y2="17.74"/>
          <line class="cls-4" x1="25.46" y1="14.74" x2="23.47" y2="15.49"/>
          <line class="cls-4" x1="25.46" y1="14.74" x2="26.35" y2="17"/>
          <line class="cls-4" x1="17.33" y1="15.31" x2="15.34" y2="16.06"/>
          <line class="cls-4" x1="17.33" y1="15.31" x2="18.52" y2="17.36"/>
          <line class="cls-4" x1="16.9" y1="13.22" x2="14.92" y2="13.97"/>
          <line class="cls-4" x1="9.21" y1="12.05" x2="7.23" y2="12.8"/>
          <line class="cls-4" x1="9.21" y1="12.05" x2="10.77" y2="12.28"/>
          <line class="cls-4" x1="12.37" y1="13.05" x2="10.39" y2="13.8"/>
          <line class="cls-4" x1="12.37" y1="13.05" x2="13.93" y2="14.34"/>
          <line class="cls-4" x1="10.71" y1="18.53" x2="11.38" y2="17.56"/>
          <line class="cls-4" x1="13.36" y1="16.81" x2="12.37" y2="17.18"/>
          <line class="cls-4" x1="13.36" y1="16.81" x2="14.55" y2="18.86"/>
          <line class="cls-4" x1="11.76" y1="11.9" x2="9.78" y2="12.65"/>
          <line class="cls-4" x1="11.76" y1="11.9" x2="13.36" y2="12.68"/>
          <line class="cls-4" x1="14.92" y1="13.97" x2="12.94" y2="14.72"/>
          <line class="cls-4" x1="14.92" y1="13.97" x2="16.34" y2="15.69"/>
          <line class="cls-4" x1="8.79" y1="12.02" x2="6.81" y2="12.77"/>
          <line class="cls-4" x1="8.79" y1="12.02" x2="10.2" y2="11.68"/>
          <line class="cls-4" x1="5.76" y1="16.27" x2="6.37" y2="15.34"/>
          <line class="cls-4" x1="22.38" y1="18.49" x2="20.4" y2="19.24"/>
          <line class="cls-4" x1="21.49" y1="16.24" x2="22.38" y2="18.49"/>
          <line class="cls-4" x1="15.73" y1="10.4" x2="13.74" y2="11.15"/>
          <line class="cls-4" x1="15.73" y1="10.4" x2="17.33" y2="11.18"/>
          <line class="cls-4" x1="19.31" y1="14.56" x2="17.33" y2="15.31"/>
          <line class="cls-4" x1="19.31" y1="14.56" x2="20.5" y2="16.61"/>
          <line class="cls-4" x1="18.32" y1="10.81" x2="16.34" y2="11.56"/>
          <line class="cls-4" x1="18.32" y1="10.81" x2="19.88" y2="12.1"/>
          <line class="cls-4" x1="13.74" y1="11.15" x2="11.76" y2="11.9"/>
          <line class="cls-4" x1="13.74" y1="11.15" x2="15.35" y2="11.93"/>
          <line class="cls-4" x1="16.34" y1="11.56" x2="14.36" y2="12.31"/>
          <line class="cls-4" x1="25.26" y1="12.32" x2="23.28" y2="13.07"/>
          <line class="cls-4" x1="24.84" y1="10.23" x2="26.25" y2="11.95"/>
          <line class="cls-4" x1="24.37" y1="17.74" x2="22.38" y2="18.49"/>
          <line class="cls-4" x1="23.47" y1="15.49" x2="24.37" y2="17.74"/>
          <line class="cls-4" x1="18.89" y1="12.47" x2="16.9" y2="13.22"/>
          <line class="cls-4" x1="18.89" y1="12.47" x2="20.3" y2="14.19"/>
          <line class="cls-4" x1="21.29" y1="13.82" x2="19.31" y2="14.56"/>
          <line class="cls-4" x1="27.44" y1="13.99" x2="28.27" y2="16.09"/>
          <line class="cls-4" x1="2.79" y1="17.4" x2="3.52" y2="16.25"/>
          <line class="cls-4" x1="4.22" y1="15.99" x2="3.52" y2="16.25"/>
          <line class="cls-4" x1="3.78" y1="17.02" x2="2.79" y2="17.4"/>
          <line class="cls-4" x1="3.78" y1="17.02" x2="4.52" y2="15.88"/>
          <line class="cls-4" x1="14.36" y1="12.31" x2="12.37" y2="13.05"/>
          <line class="cls-4" x1="14.36" y1="12.31" x2="15.91" y2="13.59"/>
          <line class="cls-4" x1="16.43" y1="20.74" x2="14.45" y2="21.48"/>
          <line class="cls-4" x1="15.54" y1="18.48" x2="13.56" y2="19.23"/>
          <line class="cls-4" x1="15.54" y1="18.48" x2="16.43" y2="20.74"/>
          <line class="cls-4" x1="8.41" y1="14.55" x2="9.96" y2="15.84"/>
          <line class="cls-4" x1="8.26" y1="16.06" x2="8.41" y2="14.55"/>
          <line class="cls-4" x1="10.39" y1="13.8" x2="9.4" y2="14.18"/>
          <line class="cls-4" x1="10.39" y1="13.8" x2="11.95" y2="15.09"/>
          <line class="cls-4" x1="22.29" y1="9.31" x2="20.31" y2="10.06"/>
          <line class="cls-4" x1="22.29" y1="9.31" x2="23.85" y2="10.6"/>
          <line class="cls-4" x1="19.69" y1="8.91" x2="17.71" y2="9.66"/>
          <line class="cls-4" x1="19.69" y1="8.91" x2="21.3" y2="9.69"/>
          <line class="cls-4" x1="27.24" y1="11.57" x2="25.26" y2="12.32"/>
          <line class="cls-4" x1="20.31" y1="10.06" x2="18.32" y2="10.81"/>
          <line class="cls-4" x1="20.31" y1="10.06" x2="21.86" y2="11.35"/>
          <line class="cls-4" x1="17.71" y1="9.66" x2="15.73" y2="10.4"/>
          <line class="cls-4" x1="17.71" y1="9.66" x2="19.31" y2="10.44"/>
          <line class="cls-4" x1="22.85" y1="10.97" x2="20.87" y2="11.72"/>
          <line class="cls-4" x1="22.85" y1="10.97" x2="24.27" y2="12.69"/>
          <line class="cls-4" x1="7.42" y1="15.65" x2="5.76" y2="16.27"/>
          <line class="cls-4" x1="19.51" y1="16.99" x2="17.53" y2="17.73"/>
          <line class="cls-4" x1="19.51" y1="16.99" x2="20.4" y2="19.24"/>
          <line class="cls-4" x1="17.14" y1="9.06" x2="15.16" y2="9.81"/>
          <line class="cls-4" x1="17.14" y1="9.06" x2="18.7" y2="9.28"/>
          <line class="cls-4" x1="14.74" y1="9.78" x2="16.15" y2="9.43"/>
          <line class="cls-4" x1="21.11" y1="7.56" x2="19.13" y2="8.31"/>
          <line class="cls-4" x1="15.16" y1="9.81" x2="13.18" y2="10.56"/>
          <line class="cls-4" x1="15.16" y1="9.81" x2="16.72" y2="10.03"/>
          <line class="cls-4" x1="15.34" y1="16.06" x2="13.36" y2="16.81"/>
          <line class="cls-4" x1="15.34" y1="16.06" x2="16.53" y2="18.11"/>
          <line class="cls-4" x1="9.96" y1="15.84" x2="11.38" y2="17.56"/>
          <line class="cls-4" x1="10.95" y1="15.46" x2="9.96" y2="15.84"/>
          <line class="cls-4" x1="10.95" y1="15.46" x2="12.37" y2="17.18"/>
          <line class="cls-4" x1="12.57" y1="19.6" x2="13.46" y2="21.86"/>
          <line class="cls-4" x1="13.56" y1="19.23" x2="12.57" y2="19.6"/>
          <line class="cls-4" x1="13.56" y1="19.23" x2="14.39" y2="21.33"/>
          <line class="cls-4" x1="3.52" y1="16.25" x2="4.5" y2="15.52"/>
          <line class="cls-4" x1="3.52" y1="16.25" x2="3.16" y2="15.64"/>
          <line class="cls-4" x1="5.51" y1="15.51" x2="4.22" y2="15.99"/>
          <line class="cls-4" x1="5.25" y1="13.55" x2="6.8" y2="13.77"/>
          <line class="cls-4" x1="5.66" y1="15.24" x2="6.94" y2="15.42"/>
          <line class="cls-4" x1="7.23" y1="12.8" x2="6.24" y2="13.17"/>
          <line class="cls-4" x1="7.23" y1="12.8" x2="8.79" y2="13.02"/>
          <line class="cls-4" x1="21.29" y1="13.82" x2="21.29" y2="13.82"/>
          <line class="cls-4" x1="6.07" y1="15.29" x2="5.51" y2="15.51"/>
          <line class="cls-4" x1="13.18" y1="10.56" x2="13.18" y2="10.56"/>
          <line class="cls-4" x1="6.8" y1="13.77" x2="8.41" y2="14.55"/>
          <line class="cls-4" x1="9.4" y1="14.18" x2="8.9" y2="14.36"/>
          <line class="cls-4" x1="11.38" y1="17.56" x2="12.57" y2="19.6"/>
          <line class="cls-4" x1="3.83" y1="13.89" x2="5.25" y2="13.55"/>
          <line class="cls-4" x1="20.87" y1="11.72" x2="22.29" y2="13.44"/>
          <line class="cls-4" x1="28.27" y1="16.09" x2="28.33" y2="16.25"/>
          <line class="cls-4" x1="29.87" y1="18.2" x2="27.88" y2="18.95"/>
          <line class="cls-4" x1="29.32" y1="15.87" x2="29.87" y2="18.2"/>
          <line class="cls-4" x1="13.18" y1="10.56" x2="14.73" y2="10.78"/>
          <line class="cls-4" x1="9.78" y1="11.65" x2="8.79" y2="12.02"/>
          <line class="cls-4" x1="4.82" y1="13.52" x2="3.83" y2="13.89"/>
          <line class="cls-4" x1="21.93" y1="21.19" x2="19.95" y2="21.94"/>
          <line class="cls-4" x1="21.39" y1="18.87" x2="21.93" y2="21.19"/>
          <line class="cls-4" x1="19.95" y1="21.94" x2="17.97" y2="22.69"/>
          <line class="cls-4" x1="19.41" y1="19.61" x2="19.95" y2="21.94"/>
          <line class="cls-4" x1="18.7" y1="8.28" x2="20.12" y2="7.94"/>
          <line class="cls-4" x1="18.7" y1="8.28" x2="17.71" y2="8.66"/>
          <line class="cls-4" x1="23.28" y1="13.07" x2="24.47" y2="15.12"/>
          <line class="cls-4" x1="19.7" y1="7.91" x2="18.7" y2="8.28"/>
          <line class="cls-4" x1="16.72" y1="9.03" x2="15.73" y2="9.4"/>
          <line class="cls-4" x1="24.27" y1="8.57" x2="25.83" y2="9.85"/>
          <line class="cls-4" x1="27.88" y1="18.95" x2="25.9" y2="19.69"/>
          <line class="cls-4" x1="27.34" y1="16.62" x2="27.88" y2="18.95"/>
          <line class="cls-4" x1="6.31" y1="17.38" x2="4.33" y2="18.13"/>
          <line class="cls-4" x1="6.31" y1="17.38" x2="6.76" y2="15.9"/>
          <line class="cls-4" x1="16.9" y1="13.22" x2="18.32" y2="14.94"/>
          <line class="cls-4" x1="10.71" y1="18.53" x2="11.69" y2="20.22"/>
          <line class="cls-4" x1="19.7" y1="7.91" x2="21.11" y2="7.56"/>
          <line class="cls-4" x1="16.34" y1="11.56" x2="17.9" y2="12.85"/>
          <line class="cls-4" x1="10.77" y1="11.27" x2="12.19" y2="10.93"/>
          <line class="cls-4" x1="3.16" y1="15.64" x2="2.64" y2="14.79"/>
          <line class="cls-4" x1="12.75" y1="10.53" x2="10.77" y2="11.27"/>
          <line class="cls-4" x1="12.75" y1="10.53" x2="14.17" y2="10.18"/>
          <line class="cls-4" x1="9.54" y1="17.12" x2="9.96" y2="15.84"/>
          <line class="cls-4" x1="8.75" y1="16.46" x2="8.29" y2="16.63"/>
          <line class="cls-4" x1="21.49" y1="16.24" x2="21.49" y2="16.24"/>
          <line class="cls-4" x1="8.29" y1="16.63" x2="6.31" y2="17.38"/>
          <line class="cls-4" x1="8.29" y1="16.63" x2="8.43" y2="16.19"/>
          <line class="cls-4" x1="15.73" y1="9.4" x2="14.74" y2="9.78"/>
          <line class="cls-4" x1="13.75" y1="10.15" x2="12.75" y2="10.53"/>
          <line class="cls-4" x1="25.9" y1="19.69" x2="23.92" y2="20.44"/>
          <line class="cls-4" x1="25.36" y1="17.37" x2="25.9" y2="19.69"/>
          <line class="cls-4" x1="14.45" y1="21.48" x2="13.46" y2="21.86"/>
          <line class="cls-4" x1="8.9" y1="14.36" x2="8.41" y2="14.55"/>
          <line class="cls-4" x1="14.39" y1="21.33" x2="14.45" y2="21.48"/>
          <line class="cls-4" x1="10.77" y1="11.27" x2="9.78" y2="11.65"/>
          <line class="cls-4" x1="29.32" y1="15.87" x2="28.33" y2="16.25"/>
          <line class="cls-4" x1="28.43" y1="13.62" x2="27.44" y2="13.99"/>
          <line class="cls-4" x1="28.43" y1="13.62" x2="29.32" y2="15.87"/>
          <line class="cls-4" x1="1.75" y1="16.17" x2="2.64" y2="14.79"/>
          <line class="cls-4" x1="2.79" y1="17.4" x2="1.75" y2="16.17"/>
          <line class="cls-4" x1="17.97" y1="22.69" x2="15.98" y2="23.43"/>
          <line class="cls-4" x1="17.43" y1="20.36" x2="17.97" y2="22.69"/>
          <line class="cls-4" x1="1.21" y1="17.97" x2="1.75" y2="16.17"/>
          <line class="cls-4" x1="2.35" y1="18.87" x2="2.79" y2="17.4"/>
          <line class="cls-4" x1="2.35" y1="18.87" x2="1.21" y2="17.97"/>
          <line class="cls-4" x1="4.33" y1="18.13" x2="2.35" y2="18.87"/>
          <line class="cls-4" x1="4.33" y1="18.13" x2="4.77" y2="16.65"/>
          <line class="cls-4" x1="17.71" y1="8.66" x2="16.72" y2="9.03"/>
          <line class="cls-4" x1="27.24" y1="11.57" x2="28.43" y2="13.62"/>
          <line class="cls-4" x1="23.92" y1="20.44" x2="21.93" y2="21.19"/>
          <line class="cls-4" x1="23.38" y1="18.12" x2="23.92" y2="20.44"/>
          <line class="cls-4" x1="14.74" y1="9.78" x2="13.75" y2="10.15"/>
          <line class="cls-4" x1="21.11" y1="7.56" x2="22.67" y2="7.79"/>
          <line class="cls-4" x1="13.46" y1="21.86" x2="14" y2="24.18"/>
          <line class="cls-4" x1="12.86" y1="23.98" x2="14" y2="24.18"/>
          <line class="cls-4" x1="12.42" y1="22.07" x2="12.86" y2="23.98"/>
          <line class="cls-4" x1="15.98" y1="23.43" x2="14" y2="24.18"/>
          <line class="cls-4" x1="15.44" y1="21.11" x2="15.98" y2="23.43"/>
          <line class="cls-4" x1="24.27" y1="8.57" x2="23.28" y2="8.94"/>
          <line class="cls-4" x1="22.67" y1="7.79" x2="21.68" y2="8.16"/>
          <line class="cls-4" x1="22.67" y1="7.79" x2="24.27" y2="8.57"/>
          <line class="cls-4" x1="9.54" y1="17.12" x2="10.71" y2="18.53"/>
          <line class="cls-4" x1="12.37" y1="17.18" x2="11.38" y2="17.56"/>
        </g>
      </g>
      <g class="cls-8">
        <image width="6135" height="3378" transform="translate(28.99 2.89) scale(0)" xlink:href="../../../../../Documents/GitHub/obsidian/ETH_PhD/600_Dev/610_Libs/compas_masonry/icons/wip/tna/tna_formview.png"/>
      </g>
      <polygon class="cls-7" points="2.35 18.87 2.79 17.21 3.52 16.12 4.43 15.56 20.56 9.61 22.05 9.4 23.49 9.83 24.84 10.6 26.25 12.32 27.44 13.99 28.11 15.69 28.74 18.12 12.78 24 12.48 22.34 12.08 21.35 11.38 19.6 10.05 17.81 8.9 16.59 8.6 16.45 2.35 18.87"/>
      <polygon class="cls-6" points="4.33 13.71 6.02 13.55 7.09 13.91 8.52 14.56 9.9 15.68 10.75 16.63 11.83 18.33 13.07 20.73 13.72 22.55 14.04 24.17 29.97 18.12 29.71 16.88 29.42 15.87 28.85 14.37 28.5 13.61 27.72 12.2 26.78 10.9 25.92 9.94 24.87 8.89 23.12 7.98 21.78 7.65 20.7 7.7 19.13 8.12 4.9 13.44 4.33 13.71"/>
      <path class="cls-2" d="M1.17,17.97c.12-.79.35-1.4.54-1.81.18-.4.42-.89.9-1.4.22-.23.59-.62,1.2-.9.65-.3,1.22-.32,1.52-.33.67-.02,1.17.12,1.47.21.72.21,1.21.52,1.61.78.75.48,1.23.97,1.64,1.38.14.15.72.74,1.35,1.64.62.89.99,1.64,1.2,2.06.25.51.59,1.29.9,2.27.27.86.44,1.65.54,2.34"/>
      <path class="cls-3" d="M2.28,18.91c.1-.64.29-1.15.44-1.48.15-.32.34-.72.73-1.14.18-.19.48-.5.98-.73.53-.25.99-.26,1.24-.27.55-.02.95.1,1.2.17.59.17.98.42,1.32.64.61.39,1,.79,1.34,1.13.12.12.59.61,1.1,1.34.51.73.81,1.34.98,1.68.2.42.48,1.05.73,1.85.22.7.36,1.34.44,1.91"/>
      <path class="cls-2" d="M17.13,12.09c.12-.79.35-1.4.54-1.81.18-.4.42-.89.9-1.4.22-.23.59-.62,1.2-.9.65-.3,1.22-.32,1.52-.33.67-.02,1.17.12,1.47.21.72.21,1.21.52,1.61.78.75.48,1.23.97,1.64,1.38.14.15.72.74,1.35,1.64.62.89.99,1.64,1.2,2.06.25.51.59,1.29.9,2.27.27.86.44,1.65.54,2.34"/>
      <path class="cls-3" d="M18.24,13.03c.1-.64.29-1.15.44-1.48.15-.32.34-.72.73-1.14.18-.19.48-.5.98-.73.53-.25.99-.26,1.24-.27.55-.02.95.1,1.2.17.59.17.98.42,1.32.64.61.39,1,.79,1.34,1.13.12.12.59.61,1.1,1.34.51.73.81,1.34.98,1.68.2.42.48,1.05.73,1.85.22.7.36,1.34.44,1.91"/>
    </g>
  </g>
</svg>